<?xml version="1.0" encoding="utf-8"?>
<!-- Generator: Adobe Illustrator 26.0.2, SVG Export Plug-In . SVG Version: 6.00 Build 0)  -->
<svg version="1.1" id="Layer_3" xmlns="http://www.w3.org/2000/svg" xmlns:xlink="http://www.w3.org/1999/xlink" x="0px" y="0px"
	 viewBox="0 0 64 64" style="enable-background:new 0 0 64 64;" xml:space="preserve">
<g>
	<path style="fill:#C1CCE3;" d="M58,2H6C3.791,2,2,3.791,2,6v36h60V6C62,3.791,60.209,2,58,2z"/>
	<path style="fill:#EFF4F9;" d="M58,2H9C6.791,2,5,3.791,5,6v36h57V6C62,3.791,60.209,2,58,2z"/>
	<rect x="2" y="11.999" style="fill:#FDEA60;" width="50" height="30.001"/>
	<rect x="5" y="12" style="fill:#FEF088;" width="47" height="30"/>
	<rect x="2" y="17.999" style="fill:#F8D859;" width="44" height="24.001"/>
	<rect x="5" y="18" style="fill:#FDEA60;" width="41" height="24"/>
	<rect x="2" y="23.999" style="fill:#F3C14F;" width="38" height="18.001"/>
	<rect x="5" y="24" style="fill:#F8D859;" width="35" height="18"/>
	<path style="fill:#323534;" d="M2,46.001c0,2.209,1.791,4,4,4h52c2.209,0,4-1.791,4-4V42H2V46.001z"/>
	<path style="fill:#5B5D5D;" d="M62,46.001V42H5v4.001c0,2.209,1.791,4,4,4h49C60.209,50.001,62,48.21,62,46.001z"/>
	<g>
		<rect x="57" y="45" style="fill:#323534;" width="2" height="2"/>
	</g>
	<g>
		<rect x="53" y="45" style="fill:#323534;" width="2" height="2"/>
	</g>
	<path style="fill:#323534;" d="M47,62H17v0c0-2.209,1.791-4,4-4h22C45.209,58,47,59.791,47,62L47,62z"/>
	<path style="fill:#5B5D5D;" d="M43,58H25c-2.209,0-4,1.791-4,4h26C47,59.791,45.209,58,43,58z"/>
	<polygon style="fill:#323534;" points="21,50.001 24.999,54 39,54 43,50.001 	"/>
	<polygon style="fill:#5B5D5D;" points="24,50.001 27.999,54 39,54 43,50.001 	"/>
	<polygon style="fill:#323534;" points="39,54 24.999,54 22,58 41.999,58 	"/>
	<polygon style="fill:#5B5D5D;" points="27.999,54 25,58 41.999,58 39,54 	"/>
	<rect x="2" y="29.999" style="fill:#EEAB46;" width="32" height="12.001"/>
	<rect x="5" y="30" style="fill:#F3C14F;" width="29" height="12"/>
	<g>
		<path d="M58,1H6C3.243,1,1,3.243,1,6v40.001c0,2.757,2.243,5,5,5h14.586l3.093,3.093L21.5,57H21c-2.757,0-5,2.243-5,5
			c0,0.553,0.448,1,1,1h30c0.552,0,1-0.447,1-1c0-2.757-2.243-5-5-5h-0.501l-2.179-2.906l3.094-3.093H58c2.757,0,5-2.243,5-5V6
			C63,3.243,60.757,1,58,1z M6,3h52c1.654,0,3,1.346,3,3v35.001h-8V12c0-0.553-0.448-1-1-1L3,10.999V6C3,4.346,4.346,3,6,3z
			 M33,41.001H3V30.999L33,31V41.001z M34,29L3,28.999v-4L39,25v16.001h-4V30C35,29.447,34.552,29,34,29z M40,23L3,22.999v-4L45,19
			v22.001h-4V24C41,23.447,40.552,23,40,23z M46,17L3,16.999v-4L51,13v28.001h-4V18C47,17.447,46.552,17,46,17z M45.829,61H18.171
			c0.413-1.164,1.525-2,2.829-2h22C44.304,59,45.416,59.836,45.829,61z M24,57l1.5-2H38.5l1.5,2H24z M38.586,53H25.413l-1.999-1.999
			h17.171L38.586,53z M58,49.001H6c-1.654,0-3-1.346-3-3v-3h58v3C61,47.655,59.654,49.001,58,49.001z"/>
		<rect x="57" y="45.001" width="2" height="2"/>
		<rect x="53" y="45.001" width="2" height="2"/>
	</g>
</g>
</svg>
